<svg xmlns="http://www.w3.org/2000/svg" viewBox="0 0 64 64" fill="none">
  <defs>
    <linearGradient id="g" x1="0" y1="0" x2="64" y2="64" gradientUnits="userSpaceOnUse">
      <stop stop-color="#2dd4bf"/>
      <stop offset="1" stop-color="#0d9488"/>
    </linearGradient>
  </defs>
  <rect width="64" height="64" rx="16" fill="url(#g)"/>
  <path d="M37 15H27a2.5 2.5 0 0 0-2.5 2.5V25H17a2.5 2.5 0 0 0-2.5 2.5v9A2.5 2.5 0 0 0 17 39h7.5v7.5A2.5 2.5 0 0 0 27 49h10a2.5 2.5 0 0 0 2.5-2.5V39H47a2.5 2.5 0 0 0 2.5-2.5v-9A2.5 2.5 0 0 0 47 25h-7.5v-7.5A2.5 2.5 0 0 0 37 15Z" fill="#ffffff"/>
</svg>
